<?xml version="1.0" encoding="utf-8"?>
<!-- Generator: Adobe Illustrator 27.7.0, SVG Export Plug-In . SVG Version: 6.00 Build 0)  -->
<svg version="1.1" xmlns="http://www.w3.org/2000/svg" xmlns:xlink="http://www.w3.org/1999/xlink" x="0px" y="0px"
	 viewBox="0 0 1000 1000" style="enable-background:new 0 0 1000 1000;" xml:space="preserve">
<style type="text/css">
	.st0{fill:#FFFFFF;}
</style>
<g id="Layer_2">
	<rect x="-38.1" y="-29.1" class="st0" width="1206.2" height="1179.1"/>
</g>
<g id="Layer_1">
	<g transform="translate(0.000000,1000.000000) scale(0.100000,-0.100000)">
		<path d="M0,3346.4v-6653.6h3191.1h3191.1v440.5c-1.3,242.2,4,443.1,9.3,447.1c5.3,4,2.7,16-6.7,27.9c-13.3,16-13.3,21.3-1.3,25.3
			c13.3,5.3,13.3,13.3,1.3,34.6c-10.6,20-10.6,29.3,0,33.3c9.3,2.7,10.6,14.6,2.7,37.3c-6.7,17.3-8,31.9-2.7,31.9
			s9.3,131.7,9.3,292.8s5.3,292.8,10.6,292.8c6.7,0,6.7,6.7,1.3,16c-8,12-12,310.1-5.3,310.1c1.3,0,4,22.6,6.7,50.6
			c2.7,26.6,9.3,55.9,13.3,62.5c13.3,22.6,59.9-10.6,61.2-43.9c1.3-22.6,2.7-24,8-5.3c4,16,14.6,21.3,30.6,16
			c14.6-4,26.6,0,31.9,13.3c9.3,24,47.9,26.6,49.2,4c4-43.9-2.7-688-8-829c-4-87.8-9.3-407.2-13.3-707.9l-5.3-549.6h3365.4h3366.7
			v6653.6V10000h-3169.8H6969l30.6-33.3c33.3-35.9,53.2-45.2,26.6-13.3c-9.3,10.6-10.6,20-2.7,20c21.3,0,45.2-37.3,34.6-54.6
			c-5.3-9.3-4-12,5.3-6.7c8,4,17.3,2.7,22.6-5.3s37.3-29.3,73.2-46.6c35.9-18.6,86.5-51.9,111.8-74.5c25.3-21.3,49.2-39.9,53.2-39.9
			c29.3,4,46.6-1.3,69.2-18.6c24-18.6,24-18.6-2.7-12c-16,4-33.3,1.3-37.3-6.7c-6.7-9.3,4-14.6,27.9-14.6c20,0,57.2-12,81.2-26.6
			c43.9-27.9,57.2-45.2,22.6-31.9c-18.6,8-24-22.6-20-94.5c1.3-4-8-17.3-20-27.9c-26.6-27.9-25.3-58.6,4-61.2c12,0,29.3-2.7,35.9-4
			c8-2.7,25.3-4,39.9-5.3c21.3-1.3,22.6-4,6.7-14.6c-16-9.3-16-16,4-37.3c13.3-14.6,25.3-38.6,26.6-54.6c1.3-14.6,6.7-27.9,12-27.9
			c5.3,0,10.6-5.3,10.6-13.3c0-6.7-9.3-9.3-20-5.3c-10.6,5.3-20,1.3-20-8c0-10.6,12-14.6,31.9-10.6c24,5.3,34.6,0,39.9-20
			c4-18.6,13.3-24,29.3-17.3c18.6,6.7,20,5.3,5.3-12c-13.3-16-12-20,8-20c21.3,0,21.3-2.7,5.3-12c-10.6-8-24-9.3-29.3-6.7
			c-5.3,4-6.7-1.3-4-12c5.3-12,21.3-16,46.6-12c35.9,5.3,39.9,1.3,39.9-27.9c0-26.6-5.3-31.9-25.3-26.6c-22.6,5.3-25.3,0-22.6-45.2
			c4-67.9,21.3-98.5,35.9-62.5c9.3,22.6,10.6,22.6,10.6,1.3c1.3-33.3-38.6-45.2-58.6-18.6c-14.6,20-18.6,20-31.9,4
			c-10.6-12-10.6-21.3-2.7-26.6c8-5.3,9.3-18.6,5.3-30.6c-6.7-16-4-18.6,9.3-10.6s16,5.3,9.3-10.6c-4-12-4-21.3,1.3-21.3
			c5.3,1.3,18.6,1.3,29.3,0c14.6-1.3,14.6-5.3,2.7-17.3c-18.6-18.6-21.3-50.6-2.7-50.6c6.7,0,9.3,9.3,5.3,20
			c-5.3,10.6-1.3,20,6.7,20c16,0,18.6-14.6,6.7-45.2c-4-12-13.3-17.3-20-13.3c-14.6,9.3-16-12-1.3-29.3c5.3-6.7,18.6-34.6,27.9-63.9
			c14.6-42.6,14.6-53.2,0-62.5c-14.6-9.3-13.3-12,5.3-12c12,0,22.6-9.3,22.6-21.3s9.3-29.3,21.3-38.6c20-13.3,18.6-20-6.7-70.5
			c-35.9-69.2-34.6-79.8,1.3-47.9c30.6,26.6,30.6,30.6,1.3-43.9c-8-21.3-5.3-21.3,20,1.3c16,14.6,29.3,18.6,29.3,10.6
			c0-9.3-5.3-16-12-16c-6.7,0-16-9.3-20-21.3s-2.7-16,6.7-10.6c20,12,95.8-70.5,86.5-94.5c-4-12,0-20,10.6-20
			c21.3,0,38.6-35.9,21.3-46.6c-14.6-9.3-53.2,6.7-53.2,21.3c0,5.3-9.3,8-20,2.7c-20-6.7-17.3-21.3,4-25.3c5.3-1.3,24-6.7,42.6-13.3
			l33.3-10.6l-33.3-8c-34.6-9.3-93.2,9.3-93.2,29.3c0,5.3-12-1.3-26.6-16c-22.6-22.6-24-31.9-12-54.6s10.6-26.6-2.7-18.6
			c-12,8-14.6,4-8-12c6.7-17.3,2.7-21.3-21.3-20c-65.2,5.3-91.8-1.3-83.8-21.3c4-13.3-4-22.6-29.3-27.9c-20-5.3-46.6-17.3-61.2-26.6
			c-13.3-9.3-33.3-13.3-42.6-9.3c-10.6,4-18.6-1.3-18.6-14.6s-10.6-21.3-27.9-21.3c-25.3,0-26.6-2.7-10.6-22.6
			c9.3-13.3,12-20,5.3-13.3c-5.3,5.3-25.3,0-42.6-10.6c-17.3-12-30.6-16-30.6-12c0,5.3-10.6,0-24-12c-13.3-13.3-29.3-18.6-35.9-13.3
			c-5.3,6.7-6.7,0-2.7-12c6.7-17.3-13.3-31.9-91.8-69.2c-54.6-26.6-103.8-47.9-110.4-47.9c-5.3,0-24-12-39.9-25.3
			c-17.3-14.6-38.6-22.6-49.2-18.6c-12,4-18.6-2.7-18.6-20c0-14.6-6.7-29.3-14.6-31.9c-17.3-5.3-29.3-316.7-10.6-316.7
			c13.3,0,10.6-29.3-4-39.9c-5.3-4-1.3-33.3,9.3-63.9c20-55.9,24-179.6,6.7-169c-5.3,2.7-6.7-9.3-2.7-26.6c4-25.3,0-33.3-18.6-34.6
			c-14.6,0-18.6-4-12-6.7c21.3-8,8-194.3-14.6-219.6c-14.6-16-16-29.3-4-63.9c8-24,10.6-65.2,5.3-98.5
			c-22.6-141.1-10.6-302.1,22.6-302.1c5.3,0,10.6-6.7,10.6-14.6c0-6.7-4-10.6-9.3-8c-6.7,4-10.6-20-12-51.9
			c-1.3-33.3-8-66.5-16-74.5c-20-20-20-41.3-1.3-29.3c12,6.7,13.3-8,9.3-51.9c-5.3-41.3-1.3-66.5,9.3-75.9
			c29.3-24,51.9-143.7,33.3-166.3c-8-10.6-12-25.3-6.7-33.3c4-8-5.3-49.2-21.3-91.8c-39.9-103.8-94.5-142.4-195.6-139.7
			c-45.2,1.3-65.2-2.7-54.6-9.3c10.6-6.7,29.3-12,41.3-12c12,0,27.9-9.3,34.6-21.3c6.7-10.6,30.6-21.3,53.2-21.3
			c24-1.3,42.6-6.7,42.6-13.3c0-5.3,8-10.6,17.3-10.6c8,0,30.6-18.6,47.9-41.3c17.3-21.3,39.9-37.3,49.2-33.3
			c10.6,4,14.6,0,9.3-13.3c-5.3-16-10.6-16-27.9-2.7c-18.6,14.6-20,13.3-12-9.3c8-21.3,4-20-17.3,6.7c-26.6,33.3-26.6,33.3,0-39.9
			c31.9-89.2,31.9-83.8-1.3-73.2c-18.6,6.7-25.3,5.3-20-5.3c5.3-8,4-24-2.7-37.3c-10.6-18.6-14.6-17.3-30.6,13.3l-18.6,34.6
			l-14.6-31.9c-9.3-17.3-12-30.6-6.7-30.6c22.6,6.7,67.9-33.3,67.9-59.9c0-21.3,4-24,12-10.6c9.3,14.6,14.6,13.3,26.6-6.7
			c8-14.6,14.6-18.6,14.6-8c0,13.3,5.3,13.3,21.3-2.7c10.6-12,25.3-21.3,31.9-21.3c18.6,0,29.3-75.9,14.6-102.5
			c-13.3-25.3-79.8-63.9-134.4-75.9c-74.5-18.6-130.4-42.6-121.1-54.6c9.3-10.6,10.6-79.8,2.7-79.8c-2.7,0-5.3-12-8-25.3
			c-5.3-25.3-29.3-47.9-51.9-47.9c-6.7,0-8,22.6-4,50.6l8,49.2l-20-35.9c-22.6-42.6-75.9-61.2-105.1-37.3
			c-22.6,18.6-119.8,27.9-342,30.6c-91.8,1.3-171.7,6.7-177,12s-38.6,5.3-74.5,1.3c-49.2-5.3-65.2-4-65.2,10.6c0,10.6-6.7,8-17.3-8
			c-17.3-22.6-18.6-22.6-25.3,2.7c-4,16-1.3,35.9,5.3,45.2c10.6,14.6,10.6,13.3,5.3-5.3c-5.3-14.6-2.7-21.3,6.7-16
			c8,5.3,10.6,17.3,6.7,26.6c-2.7,9.3,1.3,24,9.3,33.3c9.3,9.3-20-8-62.5-37.3c-62.5-42.6-83.8-51.9-103.8-41.3
			c-29.3,16-29.3,25.3-4,59.9c17.3,21.3,18.6,21.3,12,2.7c-9.3-27.9,8-31.9,33.3-6.7c14.6,13.3,18.6,12,24-1.3s10.6-13.3,25.3-1.3
			c10.6,8,18.6,21.3,18.6,27.9c0,8,37.3,49.2,81.2,91.8c45.2,43.9,78.5,82.5,74.5,87.8c-5.3,4,12,31.9,37.3,61.2
			s43.9,57.2,39.9,59.9c-2.7,4-18.6-8-33.3-25.3c-22.6-27.9-25.3-27.9-17.3-5.3c12,38.6,45.2,73.2,61.2,63.9c6.7-4,9.3-1.3,4,6.7
			c-9.3,14.6,93.2,109.1,117.1,107.8c8,0,26.6-5.3,39.9-10.6c25.3-9.3,24-10.6-4-30.6c-18.6-13.3-26.6-27.9-21.3-38.6
			c6.7-9.3,5.3-13.3-4-6.7c-6.7,4-16,1.3-18.6-8c-4-10.6-8-12-14.6-1.3c-5.3,8,4,31.9,20,51.9l29.3,38.6l-33.3-26.6
			c-17.3-14.6-37.3-34.6-42.6-42.6c-5.3-9.3-18.6-17.3-29.3-17.3c-12,0-16-8-12-20c6.7-16,13.3-17.3,26.6-5.3
			c12,9.3,18.6,10.6,18.6,1.3c0-6.7-9.3-17.3-21.3-21.3c-17.3-6.7-16-12,6.7-37.3c21.3-21.3,24-33.3,13.3-46.6
			c-9.3-10.6-10.6-17.3-1.3-17.3c6.7,0,20,9.3,29.3,20c20,24,41.3,26.6,33.3,4c-4-9.3,8-24,26.6-33.3c26.6-12,33.3-10.6,33.3,2.7
			c0,9.3-6.7,20-16,22.6c-9.3,4-10.6,13.3-5.3,22.6c9.3,14.6,13.3,14.6,24,0c8-14.6,10.6-12,8,8c-2.7,16,2.7,25.3,13.3,22.6
			c10.6-1.3,14.6,1.3,10.6,8c-8,13.3,70.5,62.5,81.2,50.6c4-4,1.3-14.6-5.3-24c-8-9.3-17.3-34.6-21.3-57.2
			c-6.7-30.6-2.7-26.6,18.6,20c16,34.6,30.6,51.9,34.6,42.6c4-10.6,0-25.3-8-33.3c-17.3-17.3-20-39.9-2.7-29.3
			c12,6.7,54.6,82.5,54.6,95.8c0,2.7-8,1.3-16-4c-9.3-5.3-12-4-6.7,1.3c16,18.6,51.9,20,45.2,2.7c-2.7-9.3,4-22.6,16-31.9
			c17.3-13.3,18.6-20,5.3-42.6c-18.6-30.6-9.3-66.5,17.3-69.2c50.6-5.3,75.9-22.6,66.5-46.6c-5.3-13.3,2.7-16,35.9-9.3
			c53.2,9.3,99.8,37.3,98.5,59.9c0,9.3,1.3,31.9,2.7,50.6c4,31.9,4,31.9,16-6.7c6.7-21.3,9.3-47.9,5.3-58.6c-5.3-14.6-4-14.6,12-2.7
			c10.6,9.3,26.6,13.3,34.6,8c6.7-4,13.3-1.3,13.3,5.3c0,8-5.3,14.6-13.3,14.6c-6.7,0-13.3,9.3-13.3,21.3c0,18.6,4,18.6,20,5.3
			c12-9.3,25.3-13.3,30.6-8c5.3,5.3-1.3,16-14.6,22.6c-12,8-22.6,21.3-22.6,30.6c0,10.6-8,25.3-18.6,33.3
			c-10.6,9.3-16,29.3-13.3,45.2c2.7,16,2.7,21.3-2.7,13.3c-10.6-22.6-31.9-21.3-31.9,1.3c0,9.3-9.3,25.3-20,34.6
			c-10.6,9.3-20,29.3-20,45.2c-1.3,26.6-2.7,26.6-20-5.3l-18.6-33.3l-1.3,38.6v39.9l-39.9-38.6c-22.6-21.3-39.9-30.6-39.9-21.3
			c0,14.6-4,14.6-24,0c-12-9.3-6.7,0,12,21.3c18.6,22.6,31.9,50.6,27.9,63.9c-5.3,24-6.7,22.6-37.3-5.3c-37.3-34.6-42.6-21.3-9.3,20
			c13.3,16,18.6,24,12,18.6c-5.3-5.3-24,5.3-41.3,24c-21.3,24-33.3,27.9-37.3,16c-4-10.6-8-8-8,8c-1.3,20-5.3,21.3-21.3,8
			c-27.9-22.6-25.3-1.3,4,30.6c22.6,26.6,22.6,26.6-14.6,2.7c-20-13.3-42.6-33.3-49.2-45.2c-6.7-12-13.3-14.6-13.3-5.3
			c0,18.6-109.1,6.7-122.4-14.6c-14.6-22.6,0-26.6,25.3-6.7c14.6,12,18.6,13.3,12,2.7c-5.3-9.3-21.3-24-37.3-31.9
			c-20-10.6-25.3-10.6-18.6,0c13.3,21.3-4,18.6-26.6-4c-13.3-14.6-14.6-20-1.3-25.3c10.6-4,9.3-13.3-9.3-33.3
			c-13.3-16-30.6-25.3-35.9-21.3c-6.7,4-9.3-1.3-6.7-10.6c2.7-9.3-21.3-39.9-53.2-69.2c-65.2-57.2-74.5-49.2-25.3,24l31.9,47.9
			l-30.6-20c-16-10.6-33.3-17.3-37.3-13.3c-9.3,9.3-61.2-49.2-89.2-101.1c-13.3-25.3-29.3-45.2-35.9-45.2
			c-6.7,0-31.9-14.6-57.2-31.9c-41.3-29.3-43.9-30.6-29.3-4c8,14.6,29.3,38.6,47.9,53.2c39.9,31.9,43.9,49.2,5.3,29.3
			c-14.6-9.3-30.6-12-34.6-9.3c-4,4,12,17.3,34.6,29.3c47.9,24,54.6,38.6,12,25.3c-50.6-14.6-113.1-63.9-107.8-81.2
			c4-9.3,0-17.3-8-17.3s-14.6,6.7-14.6,14.6c0,6.7-6.7,9.3-14.6,4c-9.3-5.3-10.6-12-1.3-17.3c6.7-4-9.3-29.3-37.3-57.2
			c-31.9-29.3-54.6-42.6-57.2-33.3c-4,9.3-10.6-4-16-26.6c-5.3-24-14.6-43.9-21.3-43.9c-14.6,0-41.3-103.8-30.6-121.1
			c4-8,16-10.6,26.6-6.7c22.6,9.3,22.6,5.3,0-51.9c-10.6-25.3-29.3-46.6-39.9-46.6s-26.6-12-34.6-26.6c-12-22.6-10.6-25.3,9.3-17.3
			c24,9.3,95.8,70.5,82.5,70.5c-2.7,0,20,29.3,53.2,65.2c33.3,37.3,62.5,63.9,66.5,59.9c2.7-2.7-9.3-22.6-26.6-42.6
			c-50.6-54.6-74.5-89.2-55.9-77.2c26.6,14.6,21.3-16-12-75.9c-35.9-65.2-65.2-102.5-81.2-102.5c-6.7,0,4,18.6,22.6,41.3
			c38.6,45.2,79.8,118.4,67.9,118.4c-21.3,0-73.2-45.2-73.2-65.2c-1.3-20-39.9-83.8-39.9-63.9c0,5.3-18.6-10.6-41.3-37.3
			c-22.6-25.3-46.6-42.6-54.6-38.6c-6.7,4-5.3-4,5.3-20c9.3-16,22.6-27.9,29.3-27.9c5.3,0,4,9.3-5.3,20c-13.3,16-13.3,20,5.3,20
			c12,0,21.3,8,21.3,17.3c0,8,6.7,5.3,14.6-9.3c8-13.3,18.6-18.6,24-12c14.6,21.3,90.5,53.2,133.1,55.9c13.3,0,27.9,13.3,31.9,27.9
			c9.3,38.6,79.8,62.5,202.3,70.5c30.6,2.7,61.2,8,69.2,13.3c9.3,5.3,35.9,10.6,59.9,10.6s111.8,4,195.6,8c97.1,4,155.7,1.3,165-8
			c8-8,27.9-14.6,42.6-14.6c16,0,33.3-4,38.6-9.3c5.3-5.3,31.9-12,58.6-13.3c71.9-4,163.7-34.6,157-51.9c-2.7-8,0-22.6,6.7-33.3
			c9.3-14.6,14.6-16,22.6-1.3c17.3,26.6,47.9-16,37.3-54.6c-4-18.6,1.3-42.6,12-57.2c10.6-13.3,20-53.2,20-87.8
			c0-50.6-5.3-63.9-26.6-70.5c-14.6-4-26.6-13.3-26.6-20c0-6.7,9.3-9.3,20-5.3c13.3,5.3,20,0,20-14.6c0-12-6.7-17.3-14.6-13.3
			c-8,5.3-25.3-2.7-39.9-18.6c-18.6-20-33.3-24-54.6-16c-41.3,14.6-215.6-24-243.5-54.6c-9.3-9.3-29.3-55.9-45.2-103.8
			c-16-47.9-31.9-94.5-34.6-103.8c-4-9.3-12-14.6-18.6-9.3c-8,4-5.3,21.3,5.3,41.3c16,31.9,13.3,82.5-4,66.5
			c-2.7-4-17.3-1.3-31.9,6.7c-21.3,10.6-27.9,6.7-42.6-30.6c-10.6-24-14.6-46.6-10.6-50.6c14.6-10.6,18.6-57.2,5.3-47.9
			c-8,4-10.6-2.7-6.7-17.3s14.6-22.6,24-20c9.3,4,20-4,22.6-17.3c4-20,6.7-20,13.3,6.7c5.3,20,2.7,29.3-10.6,29.3
			c-10.6,0-18.6,6.7-18.6,13.3c0,39.9,62.5-9.3,69.2-53.2l5.3-33.3l18.6,37.3c9.3,20,24,35.9,30.6,35.9s5.3-9.3-4-20
			c-12-14.6-12-20-1.3-20c10.6,0,12-6.7,2.7-24c-8-16-8-30.6,1.3-43.9c10.6-16,12-14.6,6.7,4c-4,12,1.3,31.9,10.6,46.6
			c18.6,22.6,18.6,22.6,20-1.3c0-21.3,2.7-22.6,22.6-6.7c18.6,16,18.6,12-4-26.6c-13.3-24-33.3-46.6-41.3-50.6
			c-9.3-4-17.3-13.3-17.3-21.3c0-9.3,5.3-9.3,16,1.3c25.3,25.3,33.3,18.6,29.3-20c-2.7-21.3,2.7-12,10.6,20
			c8,30.6,20,55.9,26.6,55.9s8-6.7,2.7-16c-6.7-10.6-2.7-12,12-6.7c13.3,5.3,22.6,2.7,22.6-5.3s9.3-12,20-6.7
			c16,5.3,17.3,2.7,4-17.3c-10.6-17.3-10.6-30.6,0-49.2c13.3-22.6,14.6-21.3,16,14.6c0,31.9,4,35.9,13.3,18.6
			c13.3-24-17.3-121.1-37.3-115.8c-14.6,5.3-109.1-61.2-109.1-75.9c0-8,6.7-21.3,16-30.6c9.3-9.3,14.6-39.9,13.3-69.2
			c-2.7-30.6,2.7-53.2,10.6-53.2c6.7,0,13.3,16,13.3,35.9v35.9l41.3-39.9c31.9-30.6,38.6-33.3,30.6-12c-5.3,16-4,22.6,2.7,16
			c10.6-10.6,18.6-75.9,9.3-75.9c-1.3,0-14.6,12-29.3,27.9l-25.3,27.9l-14.6-69.2c-17.3-82.5-17.3-83.8-2.7-73.2c8,4,12-5.3,10.6-20
			c-1.3-26.6-2.7-26.6-18.6-5.3c-9.3,13.3-17.3,39.9-17.3,61.2c0,20-6.7,37.3-14.6,37.3c-9.3,0-12-13.3-6.7-34.6
			c6.7-22.6,0-45.2-18.6-71.9c-14.6-20-26.6-43.9-26.6-50.6c0-8-5.3-18.6-13.3-22.6c-8-5.3-8,5.3,1.3,29.3
			c8,21.3,9.3,65.2,5.3,102.5c-6.7,45.2-5.3,62.5,5.3,55.9c8-5.3,14.6-4,14.6,4c0,6.7-8,16-16,20c-9.3,4-1.3,5.3,20,1.3
			c20-4,35.9-1.3,35.9,6.7c0,17.3-59.9,54.6-81.2,50.6c-12-2.7-18.6,8-17.3,27.9c1.3,29.3,0,30.6-16,8
			c-13.3-18.6-14.6-29.3-2.7-42.6c10.6-13.3,10.6-22.6,0-33.3c-24-24-18.6-42.6,4-24c12,9.3,24,13.3,29.3,8c5.3-4-4-17.3-20-29.3
			c-18.6-12-29.3-33.3-29.3-55.9c1.3-33.3,2.7-34.6,18.6-12c16,21.3,18.6,20,25.3-20c2.7-24,1.3-53.2-5.3-63.9
			c-9.3-17.3-10.6-17.3-12,0c0,24-21.3,2.7-31.9-33.3c-4-14.6-4-1.3,0,27.9c5.3,37.3,1.3,61.2-12,74.5c-16,16-17.3,22.6-1.3,43.9
			c22.6,30.6,25.3,58.6,4,37.3c-22.6-22.6-57.2-6.7-37.3,17.3c10.6,13.3,10.6,18.6,0,18.6c-8,0-14.6-6.7-14.6-16c0-12-4-12-14.6-1.3
			c-9.3,9.3-12,26.6-6.7,39.9c8,20,10.6,20,21.3,4c8-10.6,13.3-13.3,13.3-6.7c0,8,10.6-1.3,21.3-20c10.6-18.6,17.3-24,13.3-12
			c-2.7,12,1.3,29.3,9.3,38.6c13.3,13.3,10.6,16-9.3,8c-18.6-6.7-22.6-2.7-16,12c4,10.6,1.3,20-5.3,20c-6.7,0-9.3,10.6-4,24
			c4,12-10.6-1.3-31.9-30.6c-29.3-37.3-35.9-58.6-26.6-69.2c8-12,8-22.6-2.7-34.6c-8-10.6-10.6-21.3-6.7-26.6c4-4,4-20-1.3-37.3
			c-6.7-21.3-12-24-20-10.6c-6.7,9.3-8,24-2.7,30.6c4,8,8,35.9,9.3,62.5c0,26.6,8,57.2,18.6,69.2c9.3,13.3,12,22.6,5.3,22.6
			c-6.7,0-21.3-16-30.6-34.6c-21.3-39.9-127.7-98.5-114.4-62.5c5.3,14.6,2.7,18.6-12,12c-22.6-8-25.3,9.3-6.7,46.6
			c8,13.3,10.6,25.3,8,25.3c-4,0-16-16-26.6-35.9l-20-37.3l5.3,50.6c4,31.9,1.3,47.9-6.7,42.6c-6.7-4-13.3-20-13.3-33.3
			c0-33.3-13.3-66.5-26.6-66.5c-6.7,0-8,13.3-2.7,29.3c5.3,22.6,2.7,26.6-14.6,20c-14.6-5.3-18.6-2.7-13.3,10.6
			c4,10.6-2.7,24-14.6,27.9c-26.6,10.6-26.6,27.9-1.3,77.2c16,30.6,17.3,34.6,1.3,22.6c-14.6-12-20-12-25.3,1.3
			c-2.7,10.6-13.3,0-24-22.6c-9.3-21.3-29.3-53.2-42.6-69.2c-14.6-17.3-26.6-49.2-26.6-73.2c0-24-2.7-33.3-5.3-20
			c-4,17.3-14.6,22.6-31.9,18.6c-13.3-4-22.6-1.3-18.6,4c4,6.7,1.3,26.6-6.7,46.6c-6.7,18.6-9.3,31.9-2.7,29.3
			c5.3-4,21.3,9.3,34.6,27.9c22.6,29.3,22.6,33.3,4,25.3c-25.3-9.3-31.9,22.6-9.3,37.3c6.7,4,20,21.3,27.9,37.3
			c8,16-18.6-4-59.9-46.6c-41.3-41.3-74.5-73.2-74.5-70.5c0,1.3,14.6,37.3,33.3,79.8c18.6,42.6,31.9,78.5,29.3,81.2
			c-6.7,6.7-75.9-130.4-75.9-150.4c0-10.6-18.6-16-46.6-14.6c-33.3,1.3-43.9,5.3-33.3,16c18.6,18.6,17.3,38.6-2.7,26.6
			c-8-5.3-5.3,4,6.7,22.6c34.6,47.9,26.6,61.2-13.3,24c-34.6-31.9-30.6-12,6.7,31.9c18.6,21.3,18.6,22.6-12,18.6
			c-17.3-2.7-31.9-12-31.9-20s-5.3-18.6-12-25.3c-6.7-6.7-8-2.7-1.3,8c8,14.6,4,17.3-22.6,10.6c-24-6.7-33.3-2.7-33.3,10.6
			c0,10.6,5.3,16,10.6,12c5.3-2.7,13.3,6.7,18.6,21.3c4,14.6,13.3,26.6,20,26.6c5.3,0,8,13.3,2.7,29.3c-4,18.6-1.3,25.3,8,18.6
			c9.3-5.3,26.6-2.7,38.6,5.3c21.3,12,20,13.3-5.3,6.7c-18.6-5.3-30.6-2.7-30.6,5.3s-9.3,14.6-21.3,14.6c-18.6,0-20,4-4,24
			c9.3,12-1.3,5.3-25.3-16c-24-22.6-42.6-41.3-42.6-42.6c0-1.3,13.3,0,30.6,2.7c17.3,4,10.6-2.7-17.3-16
			c-30.6-14.6-47.9-16-50.6-6.7c-2.7,8-9.3,12-16,8c-10.6-6.7-2.7,42.6,12,66.5c4,8-5.3,0-21.3-18.6c-29.3-33.3-29.3-33.3-21.3-4
			c4,16,12,33.3,18.6,37.3c13.3,8-14.6,71.9-31.9,71.9c-6.7,0-9.3-9.3-5.3-20c5.3-10.6,1.3-22.6-6.7-27.9c-9.3-5.3-10.6-4-5.3,5.3
			c5.3,9.3,1.3,16-10.6,16c-25.3,0-26.6,14.6-4,39.9c13.3,16,12,16-6.7,1.3c-12-9.3-29.3-13.3-37.3-8c-20,12-2.7,33.3,27.9,33.3
			c13.3,0,25.3,8,25.3,18.6c0,21.3,27.9,34.6,70.5,34.6c27.9,1.3,27.9,1.3-4,20c-38.6,21.3-58.6,25.3-47.9,8c4-6.7-1.3-14.6-12-20
			c-26.6-9.3-34.6,8-27.9,61.2c5.3,39.9,2.7,45.2-22.6,45.2c-17.3-1.3-27.9,5.3-25.3,16c1.3,10.6-2.7,14.6-10.6,9.3
			c-6.7-4-13.3-1.3-13.3,6.7c0,9.3-8,6.7-20-5.3c-25.3-25.3-27.9-57.2-2.7-37.3c9.3,8,25.3,9.3,34.6,4c14.6-9.3,14.6-17.3,1.3-42.6
			c-24-45.2-24-45.2-53.2-18.6c-31.9,29.3-34.6,69.2-4,113.1l22.6,33.3l-29.3-25.3c-30.6-26.6-41.3-105.1-16-121.1
			c21.3-13.3,14.6-27.9-13.3-29.3c-17.3-1.3-34.6,12-49.2,39.9c-12,24-24,34.6-26.6,26.6c-4-9.3-12-17.3-20-17.3s-10.6,9.3-5.3,20
			c4,10.6,2.7,20-4,20c-20,0-27.9-17.3-14.6-33.3c10.6-12,8-18.6-6.7-25.3c-30.6-10.6-25.3,34.6,9.3,79.8c18.6,24,21.3,31.9,6.7,20
			c-13.3-10.6-22.6-12-22.6-4s9.3,20,20,26.6c13.3,6.7,17.3,20,12,34.6c-8,21.3-10.6,21.3-34.6-1.3c-25.3-22.6-25.3-22.6-9.3,13.3
			c9.3,20,24,34.6,31.9,30.6c8-2.7,16,2.7,16,13.3c0,24-5.3,24-50.6-9.3c-21.3-14.6-38.6-21.3-38.6-16c0,6.7,26.6,30.6,59.9,54.6
			l59.9,41.3l10.6-42.6l12-42.6l5.3,42.6c5.3,33.3,1.3,43.9-17.3,47.9c-13.3,4-27.9,1.3-31.9-5.3c-9.3-16-101.1-54.6-109.1-45.2
			c-4,2.7,2.7,9.3,14.6,14.6c16,5.3,20,17.3,14.6,38.6c-6.7,25.3,0,35.9,30.6,51.9c22.6,12,29.3,20,16,21.3
			c-26.6,0-65.2-41.3-65.2-69.2c0-12-9.3-29.3-22.6-38.6c-20-17.3-20-16-6.7,10.6c16,29.3,9.3,70.5-10.6,70.5c-6.7,0-8,21.3-4,46.6
			c5.3,33.3,2.7,46.6-10.6,46.6c-13.3,0-13.3,4-1.3,16c20,20,21.3,42.6,2.7,30.6c-18.6-12-17.3,10.6,2.7,30.6c12,12,12,16-1.3,16
			c-12,0-16,18.6-12,65.2c2.7,55.9,1.3,63.9-14.6,50.6c-16-13.3-17.3-12-10.6,8c5.3,13.3,9.3,27.9,9.3,30.6c0,4,5.3,4,12-1.3
			c6.7-4,24,8,38.6,26.6c18.6,22.6,29.3,27.9,33.3,17.3c5.3-10.6,8-9.3,8,5.3c1.3,31.9-18.6,41.3-39.9,16
			c-9.3-10.6-26.6-25.3-39.9-33.3c-20-10.6-22.6-8-16,9.3c5.3,16,4,20-8,13.3c-8-5.3-12-21.3-8-34.6c5.3-16-5.3-39.9-31.9-69.2
			c-27.9-31.9-38.6-37.3-35.9-20c1.3,13.3,9.3,29.3,17.3,33.3c6.7,5.3,21.3,31.9,29.3,58.6c9.3,27.9,22.6,53.2,29.3,58.6
			c8,5.3,8,14.6-1.3,25.3s-12,25.3-8,31.9c5.3,6.7,2.7,16-5.3,21.3c-6.7,4-13.3,1.3-13.3-5.3c0-8-6.7-14.6-14.6-14.6
			s-10.6,10.6-6.7,24c6.7,20,5.3,18.6-12-2.7c-10.6-13.3-16-29.3-13.3-34.6c4-6.7-2.7-14.6-14.6-18.6c-30.6-12-31.9-10.6-20,22.6
			c21.3,55.9-4,69.2-43.9,22.6c-39.9-47.9-47.9-41.3-8,9.3c14.6,18.6,29.3,54.6,34.6,79.8c5.3,30.6,18.6,49.2,38.6,57.2
			c33.3,12,57.2,39.9,34.6,39.9c-6.7,0-17.3-6.7-22.6-14.6c-6.7-10.6-10.6-10.6-17.3,0c-5.3,8-24-9.3-45.2-41.3
			c-20-30.6-35.9-49.2-35.9-41.3s10.6,27.9,25.3,45.2c13.3,17.3,21.3,39.9,18.6,49.2c-4,8,0,16,8,16s10.6,9.3,5.3,20
			c-6.7,18.6-9.3,18.6-24-2.7c-8-13.3-24-51.9-33.3-86.5c-10.6-34.6-24-58.6-29.3-55.9c-6.7,4-8,13.3-4,20c5.3,6.7,1.3,12-6.7,12
			s-10.6-13.3-5.3-35.9c5.3-21.3,5.3-33.3,0-27.9c-17.3,14.6-31.9,103.8-20,111.8c6.7,4,12,16,12,26.6c0,10.6-5.3,17.3-10.6,13.3
			c-5.3-2.7-12,8-13.3,26.6c-1.3,17.3,4,31.9,12,31.9c9.3,0,12,13.3,6.7,31.9c-6.7,25.3,0,38.6,29.3,59.9
			c20,14.6,30.6,27.9,22.6,27.9c-6.7,0-30.6-14.6-51.9-33.3c-21.3-18.6-39.9-33.3-42.6-33.3c-9.3,0,5.3,62.5,20,91.8
			c10.6,18.6,12,27.9,2.7,22.6c-18.6-12-18.6,0,0,33.3c13.3,26.6,13.3,26.6-20,5.3c-18.6-13.3-34.6-17.3-34.6-9.3s6.7,16,16,18.6
			c22.6,8,24,50.6,1.3,50.6c-13.3,0-17.3,8-12,21.3c6.7,17.3,5.3,18.6-9.3,6.7c-16-12-17.3-9.3-12,18.6c2.7,20,0,33.3-9.3,33.3
			c-13.3,0-18.6-25.3-18.6-73.2c0-8-10.6-14.6-24-14.6c-14.6,0-25.3,5.3-25.3,10.6s5.3,10.6,12,10.6c8,0,12,12,10.6,26.6
			c-1.3,14.6-8,26.6-14.6,26.6c-6.7,0,0,12,16,26.6c16,14.6,37.3,26.6,47.9,26.6c10.6,0,22.6,5.3,26.6,12c5.3,6.7-4,9.3-20,5.3
			c-16-5.3-33.3,0-38.6,9.3c-9.3,14.6-14.6,14.6-30.6,1.3c-12-8-24-10.6-27.9-4c-9.3,16,5.3,69.2,20,69.2c6.7,0,12,9.3,12,20
			c0,10.6-5.3,20-10.6,20c-5.3,0-20,17.3-33.3,38.6c-17.3,29.3-18.6,42.6-8,49.2c10.6,6.7,12,4,5.3-8c-6.7-10.6-5.3-14.6,2.7-9.3
			c8,5.3,17.3,21.3,21.3,34.6c6.7,25.3,5.3,25.3-29.3,5.3c-22.6-14.6-29.3-16-17.3-4c33.3,37.3,14.6,42.6-31.9,6.7l-46.6-35.9
			l21.3,51.9c12,27.9,37.3,67.9,57.2,89.2l35.9,38.6l-35.9-25.3c-20-13.3-42.6-38.6-51.9-54.6c-8-16-26.6-31.9-41.3-34.6
			c-25.3-6.7-25.3-6.7-1.3,20c30.6,34.6,30.6,77.2,1.3,106.5c-17.3,17.3-22.6,38.6-18.6,73.2l5.3,50.6l-16-38.6
			c-17.3-37.3-42.6-29.3-27.9,8c5.3,12-4,25.3-22.6,34.6c-17.3,8-24,14.6-14.6,14.6c12,1.3,10.6,10.6-2.7,37.3
			c-10.6,20-14.6,41.3-10.6,47.9c5.3,8,0,10.6-12,5.3c-18.6-6.7-20-4-2.7,27.9c13.3,26.6,13.3,37.3,1.3,45.2c-8,5.3-18.6,4-22.6-2.7
			c-4-6.7-6.7,18.6-5.3,55.9c2.7,38.6-2.7,77.2-9.3,86.5c-8,9.3-10.6,22.6-5.3,30.6c4,6.7,4,21.3-2.7,30.6
			c-5.3,8-10.6,22.6-10.6,29.3c-4,46.6-24,139.7-31.9,139.7c-4,0-9.3,16-10.6,37.3c-4,54.6-25.3,175.7-41.3,235.5
			c-8,29.3-18.6,91.8-22.6,138.4s-10.6,90.5-16,98.5c-17.3,27.9-16,223.6,2.7,267.5c10.6,24,16,47.9,10.6,51.9
			c-4,4-9.3,33.3-10.6,63.9c-4,41.3-1.3,51.9,8,38.6c9.3-14.6,12,0,8,46.6c-2.7,35.9,0,83.8,6.7,106.5c6.7,21.3,14.6,63.9,18.6,93.2
			c12,99.8,13.3,113.1,22.6,121.1c14.6,14.6,10.6,34.6-5.3,25.3c-8-5.3-1.3,16,14.6,46.6c16,30.6,22.6,51.9,14.6,47.9
			c-17.3-12-31.9,14.6-18.6,35.9c5.3,8,12,27.9,13.3,42.6c1.3,27.9,13.3,79.8,17.3,79.8c10.6,0,6.7,70.5-5.3,85.2
			c-10.6,14.6-10.6,17.3,2.7,9.3c8-5.3,16-5.3,17.3,1.3c0,5.3,4,35.9,6.7,66.5c5.3,46.6,2.7,55.9-13.3,49.2
			c-20-8-16,14.6,21.3,113.1c10.6,29.3,10.6,30.6-12,13.3c-22.6-17.3-22.6-16,0,10.6c14.6,16,21.3,35.9,14.6,45.2
			c-5.3,9.3-4,13.3,5.3,6.7c9.3-5.3,17.3,14.6,24,54.6c5.3,35.9,18.6,71.9,30.6,81.2c13.3,10.6,13.3,14.6,2.7,8
			c-14.6-8-17.3-4-9.3,16c21.3,51.9,33.3,102.5,27.9,111.8c-4,6.7,12,29.3,33.3,53.2c22.6,24,39.9,57.2,39.9,74.5
			c0,18.6,14.6,49.2,33.3,69.2c18.6,20,33.3,42.6,33.3,50.6c0,9.3,30.6,43.9,67.9,77.2c37.3,33.3,62.5,61.2,54.6,61.2
			c-13.3,0-153-138.4-159.7-159.7c-2.7-8-10.6-13.3-17.3-13.3c-8,0,1.3,20,20,43.9c18.6,25.3,30.6,47.9,26.6,53.2
			c-4,4,8,17.3,26.6,29.3c17.3,12,49.2,42.6,69.2,69.2l34.6,46.6l-57.2-37.3l-58.6-35.9l63.9,70.5c34.6,38.6,59.9,73.2,55.9,77.2
			c-5.3,5.3-90.5-82.5-135.7-142.4c-13.3-17.3-14.6-16-8,12c4,18.6,22.6,47.9,42.6,65.2c18.6,17.3,25.3,26.6,14.6,20
			c-21.3-10.6,26.6,50.6,73.2,91.8c30.6,29.3-1.3,14.6-37.3-14.6c-12-10.6-22.6-13.3-22.6-6.7c0,8,21.3,33.3,46.6,55.9
			c26.6,22.6,43.9,41.3,38.6,41.3c-4,0,0,10.6,9.3,22.6c10.6,13.3-8,1.3-41.3-24c-79.8-63.9-106.5-77.2-69.2-35.9
			c17.3,18.6,31.9,43.9,34.6,54.6c1.3,10.6,10.6,29.3,20,41.3c24,27.9,4,26.6-30.6-1.3c-27.9-24-27.9-24-2.7,6.7
			c14.6,16,33.3,29.3,41.3,29.3c9.3,0,25.3,9.3,34.6,22.6c17.3,20,16,20-12,5.3c-39.9-21.3-53.2-9.3-24,18.6
			c12,12,18.6,26.6,14.6,33.3c-4,5.3,2.7,17.3,13.3,26.6c10.6,9.3,20,22.6,20,30.6s-14.6,0-33.3-17.3
			c-55.9-53.2-37.3-17.3,26.6,49.2c69.2,71.9,69.2,89.2,0,37.3c-69.2-53.2-69.2-33.3,0,25.3c33.3,26.6,59.9,58.6,59.9,70.5
			s4,17.3,9.3,13.3c13.3-13.3,69.2,70.5,61.2,91.8c-5.3,16-351.3,18.6-2334.1,18.6H0V3346.4z M3424,8318
			c26.6-13.3,65.2-42.6,85.2-66.5c18.6-22.6,38.6-41.3,45.2-41.3c18.6,0,91.8-73.2,91.8-93.2c0-10.6,9.3-20,20-20
			c12,0,20-12,20-31.9c0-17.3,4-42.6,9.3-55.9c8-21.3,9.3-21.3,18.6,2.7c6.7,14.6,9.3,1.3,5.3-37.3c-2.7-34.6,0-66.5,6.7-70.5
			c8-4,9.3,1.3,5.3,13.3c-6.7,14.6-2.7,18.6,12,12c12-4,17.3-16,13.3-26.6c-4-10.6-2.7-18.6,1.3-18.6c5.3,0,14.6,13.3,21.3,30.6
			c9.3,24,12,17.3,12-34.6c1.3-34.6,6.7-73.2,13.3-86.5c35.9-63.9,51.9-111.8,46.6-129.1c-4-9.3-1.3-21.3,6.7-26.6
			c10.6-5.3,8-20-5.3-46.6c-10.6-21.3-18.6-67.9-18.6-102.5c1.3-57.2,2.7-59.9,12-24c8,33.3,10.6,27.9,12-33.3
			c1.3-41.3,10.6-85.2,21.3-98.5c10.6-14.6,20-37.3,20-49.2c0-13.3,5.3-25.3,12-27.9c6.7-1.3,16-42.6,20-89.2
			c5.3-47.9,16-94.5,24-105.1c12-13.3,12-20-1.3-29.3c-13.3-6.7-14.6-27.9-8-78.5l9.3-69.2l-38.6,9.3c-20,4-66.5,16-102.5,26.6
			c-94.5,26.6-93.2,10.6,2.7-30.6c45.2-18.6,82.5-39.9,82.5-46.6c0-5.3,9.3-10.6,21.3-10.6c18.6,0,21.3-10.6,14.6-55.9
			c-5.3-35.9-2.7-49.2,5.3-35.9c9.3,14.6,12,14.6,12-5.3c0-13.3,5.3-21.3,12-16c6.7,4,16,1.3,21.3-6.7c5.3-8,14.6-10.6,21.3-6.7
			c10.6,8,17.3-10.6,13.3-35.9c0-6.7,4-10.6,10.6-10.6s16-31.9,21.3-69.2c5.3-38.6,13.3-87.8,17.3-110.5c4-21.3,8-71.9,8-110.5
			c-1.3-45.2,4-63.9,10.6-53.2c8,10.6,10.6-4,5.3-41.3c-4-39.9-1.3-53.2,6.7-39.9c9.3,14.6,12,13.3,12-9.3c0-26.6-1.3-26.6-149,10.6
			c-94.5,24-171.7,51.9-212.9,78.5c-171.7,110.5-270.1,302.1-368.6,717.3c-24,103.8-77.2,260.8-139.7,416.5
			c-117.1,287.4-134.4,373.9-123.8,588.2c9.3,177,29.3,232.9,102.5,275.5C3282.9,8351.2,3353.4,8352.6,3424,8318z M7711.5,7721.8
			c-33.3-103.8-17.3-185,49.2-250.2c45.2-45.2,41.3-47.9-26.6-18.6c-131.7,55.9-142.4,63.9-139.7,105.1c2.7,22.6,4,58.6,4,81.2
			c0,30.6,10.6,51.9,41.3,77.2C7691.6,7760.4,7724.8,7763.1,7711.5,7721.8z M8089.5,6819.6c-10.6-8-10.6-12,1.3-20
			c8-5.3,26.6-27.9,41.3-51.9c21.3-33.3,25.3-35.9,25.3-13.3c0,14.6-8,34.6-16,43.9c-14.6,14.6-13.3,16,0,8
			c9.3-5.3,22.6-24,29.3-41.3c6.7-17.3,22.6-31.9,35.9-31.9c20,0,21.3-2.7,4-13.3c-20-12-17.3-14.6,17.3-18.6c9.3,0,16-20,16-46.6
			c1.3-29.3,10.6-51.9,31.9-69.2c16-13.3,27.9-31.9,24-41.3c-2.7-9.3,2.7-26.6,13.3-38.6c17.3-20,16-22.6-5.3-20
			c-12,0-24-8-25.3-18.6c0-10.6-2.7-34.6-4-53.2c-1.3-26.6-4-29.3-14.6-13.3c-10.6,17.3-14.6,16-31.9-6.7c-17.3-22.6-22.6-24-33.3-8
			c-9.3,13.3-5.3,29.3,13.3,51.9c26.6,34.6,31.9,55.9,14.6,55.9c-6.7,0-18.6-13.3-26.6-29.3l-14.6-30.6l-2.7,33.3
			c-1.3,18.6-1.3,38.6,0,43.9c1.3,6.7-4,8-12,2.7c-6.7-4-13.3-18.6-14.6-30.6c0-16-4-13.3-13.3,8c-6.7,17.3-9.3,37.3-4,43.9
			c4,6.7-4,12-17.3,13.3c-13.3,0-17.3,4-6.7,8c22.6,9.3,20,26.6-10.6,57.2c-33.3,33.3-33.3,33.3-66.5-2.7
			c-33.3-35.9-49.2-22.6-27.9,24c17.3,38.6,8,63.9-21.3,53.2c-12-5.3-17.3-1.3-14.6,8c4,9.3,14.6,17.3,25.3,17.3
			c21.3,0,37.3,31.9,29.3,55.9c-4,8-14.6,12-25.3,8c-10.6-4-18.6-1.3-18.6,6.7s-4,25.3-8,38.6c-8,22.6-8,22.6,10.6-1.3
			c18.6-24,20-24,29.3,12c6.7,27.9,13.3,33.3,25.3,21.3c21.3-21.3,39.9-17.3,30.6,6.7c-8,18.6-5.3,20,12,5.3
			C8098.8,6832.9,8101.4,6826.2,8089.5,6819.6z M4519.1,4415c-10.6-25.3,22.6-150.4,39.9-150.4c21.3,0,34.6-37.3,14.6-43.9
			c-8-2.7-9.3-8-2.7-12c8-4,27.9-1.3,46.6,5.3l33.3,13.3l-33.3,13.3c-18.6,8-26.6,16-17.3,20c9.3,2.7,29.3-2.7,43.9-13.3
			c27.9-20,27.9-20-25.3-50.6c-30.6-16-54.6-34.6-54.6-41.3c0-6.7,14.6-1.3,33.3,10.6c31.9,21.3,50.6,17.3,54.6-9.3
			c1.3-6.7,2.7-21.3,4-31.9c0-10.6,9.3-16,20-12c27.9,10.6,39.9-20,18.6-45.2c-33.3-38.6-37.3-53.2-17.3-59.9c12-5.3,16-1.3,12,9.3
			c-4,9.3,2.7,25.3,14.6,34.6c13.3,10.6,20,12,20,1.3c0-8,9.3-14.6,20-14.6c27.9,0,25.3-16-13.3-71.9c-39.9-58.6-30.6-62.5,16-6.7
			c26.6,31.9,37.3,37.3,45.2,22.6c16-29.3,6.7-59.9-29.3-98.5c-27.9-31.9-29.3-33.3-4-21.3c14.6,8,34.6,24,43.9,34.6
			c9.3,10.6,25.3,16,35.9,12c14.6-5.3,16-12,4-25.3c-10.6-13.3-10.6-18.6,0-18.6c8,0,14.6-8,14.6-18.6c0-9.3,13.3-27.9,30.6-38.6
			c25.3-18.6,26.6-24,9.3-35.9c-16-12-14.6-13.3,10.6-6.7c22.6,6.7,29.3,2.7,29.3-18.6c0-14.6,6.7-30.6,14.6-34.6
			c22.6-14.6,30.6,4,12,26.6c-21.3,26.6-4,26.6,22.6,0c17.3-17.3,17.3-24,1.3-42.6c-14.6-20-14.6-21.3,6.7-13.3
			c14.6,5.3,22.6,2.7,22.6-10.6c0-10.6,12-26.6,25.3-35.9c24-14.6,24-17.3,5.3-30.6c-14.6-12-17.3-18.6-6.7-25.3
			c9.3-5.3,16-2.7,16,4c0,33.3,22.6,10.6,37.3-34.6c14.6-49.2,14.6-49.2,9.3-6.7c-5.3,39.9-4,42.6,14.6,22.6
			c12-12,18.6-33.3,14.6-47.9c-5.3-21.3-2.7-25.3,18.6-18.6c29.3,9.3,97.1-26.6,86.5-45.2c-4-6.7-22.6-8-41.3-4
			c-20,2.7-33.3,0-33.3-9.3c0-8,16-16,37.3-16c20-1.3,26.6-4,13.3-8c-13.3-2.7-20-13.3-14.6-25.3c8-22.6,43.9-25.3,45.2-1.3
			c0,13.3,2.7,13.3,8,0c2.7-9.3,14.6-17.3,26.6-17.3s16-8,10.6-25.3c-5.3-18.6,2.7-29.3,34.6-42.6c37.3-14.6,39.9-18.6,17.3-26.6
			c-16-5.3-30.6-2.7-39.9,9.3c-17.3,21.3-45.2,25.3-45.2,5.3c0-6.7,8-13.3,18.6-13.3c10.6,0,21.3-9.3,26.6-20
			c5.3-16,13.3-17.3,41.3-4c39.9,18.6,50.6,9.3,49.2-41.3c0-26.6,13.3-54.6,45.2-90.5c26.6-27.9,43.9-42.6,38.6-33.3
			c-4,8,0,16,9.3,16c21.3,0,62.5-26.6,42.6-26.6c-9.3,0-20-9.3-24-21.3c-6.7-17.3-1.3-20,25.3-13.3c27.9,6.7,35.9,2.7,46.6-25.3
			c17.3-46.6,17.3-50.6-6.7-41.3c-17.3,5.3-17.3,2.7-6.7-18.6c20-37.3,45.2-49.2,34.6-16c-12,37.3,9.3,46.6,53.2,22.6
			c34.6-17.3,35.9-20,9.3-20c-16,0-31.9,8-34.6,17.3c-5.3,9.3-8,8-8-5.3c-1.3-16,17.3-26.6,58.6-37.3c71.9-18.6,77.2-26.6,13.3-22.6
			c-46.6,4-46.6,4-24-21.3c13.3-14.6,35.9-31.9,50.6-38.6c21.3-10.6,21.3-8-5.3,13.3c-20,18.6-24,27.9-12,27.9c10.6,0,24-4,29.3-9.3
			c5.3-5.3,20-10.6,30.6-10.6c12,0,24-8,27.9-18.6c4-12,0-14.6-12-8c-14.6,8-14.6,6.7-2.7-6.7c8-9.3,22.6-12,31.9-5.3
			c9.3,5.3,31.9,12,49.2,13.3c30.6,4,30.6,2.7,8-14.6c-24-18.6-24-18.6,1.3-21.3c14.6-1.3,33.3-2.7,39.9-5.3c8-1.3,21.3-4,30.6-4
			c9.3-1.3,13.3-9.3,9.3-16c-6.7-10.6-14.6-9.3-27.9,1.3c-10.6,8-18.6,9.3-18.6,4c0-6.7,12-20,25.3-27.9c21.3-13.3,26.6-12,33.3,4
			c6.7,17.3,14.6,14.6,49.2-14.6c24-18.6,49.2-31.9,58.6-27.9c9.3,2.7,27.9-5.3,41.3-20c21.3-24,21.3-25.3-6.7-25.3
			c-18.6,0-26.6,5.3-20,16c6.7,10.6,2.7,12-13.3,6.7c-13.3-5.3-31.9-9.3-42.6-9.3c-45.2,0-1.3-24,57.2-31.9
			c35.9-5.3,83.8-18.6,107.8-29.3c25.3-12,54.6-16,66.5-10.6s33.3,12,47.9,14.6c21.3,4,22.6,1.3,8-16c-13.3-16-13.3-20,1.3-21.3
			c13.3,0,14.6-2.7,2.7-8c-27.9-10.6-20-29.3,9.3-21.3c14.6,4,43.9,0,66.5-8c24-8,37.3-8,33.3-1.3c-5.3,8-1.3,13.3,8,13.3
			c9.3,0,12-13.3,9.3-33.3c-6.7-31.9-5.3-31.9,83.8-29.3c49.2,1.3,86.5-1.3,83.8-5.3c-8-13.3,57.2-42.6,73.2-33.3
			c9.3,6.7,12,1.3,6.7-10.6c-5.3-13.3-1.3-21.3,9.3-21.3c14.6,0,14.6-2.7-1.3-13.3c-10.6-6.7-14.6-16-9.3-21.3
			c4-5.3,18.6-1.3,31.9,9.3c17.3,14.6,20,14.6,12,1.3c-8-12-4-16,12-13.3c13.3,2.7,26.6-2.7,29.3-12c4-9.3-4-12-21.3-8
			c-22.6,5.3-67.9-20-67.9-39.9c0-14.6,51.9-18.6,65.2-5.3c10.6,10.6,14.6,5.3,14.6-17.3c0-18.6-5.3-26.6-10.6-20
			c-13.3,18.6-55.9,24-55.9,6.7c0-8,9.3-17.3,20-21.3c10.6-5.3,16-13.3,12-20c-4-6.7,1.3-12,10.6-12c12,0,12-4-2.7-13.3
			c-17.3-12-17.3-14.6,0-27.9c16-10.6,13.3-12-9.3-5.3c-17.3,4-43.9,4-59.9-1.3c-27.9-9.3-26.6-12,16-18.6l46.6-6.7l-31.9-29.3
			c-17.3-16-39.9-25.3-51.9-21.3c-13.3,6.7-17.3,4-10.6-8c6.7-9.3,21.3-14.6,34.6-10.6c14.6,4,27.9-1.3,31.9-12
			c4-12,0-14.6-14.6-9.3s-18.6,4-12-8c13.3-21.3-29.3-53.2-61.2-43.9c-25.3,6.7-33.3-16-10.6-30.6c8-5.3,10.6-14.6,5.3-21.3
			c-4-6.7,0-21.3,8-31.9c22.6-27.9,6.7-43.9-39.9-38.6c-25.3,2.7-38.6,0-33.3-8c10.6-17.3-8-17.3-33.3,0c-17.3,12-17.3,13.3,0,13.3
			c12,1.3,6.7,8-13.3,20c-49.2,27.9-58.6,24-33.3-14.6c27.9-43.9,10.6-63.9-45.2-51.9c-43.9,9.3-83.8,51.9-73.2,79.8
			c4,8-4,24-16,34.6c-21.3,16-22.6,16-16-2.7c5.3-12,1.3-29.3-6.7-37.3c-12-13.3-12-16,1.3-12c10.6,2.7,24-10.6,30.6-27.9
			c10.6-27.9,9.3-29.3-8-14.6c-14.6,12-20,12-20,1.3c0-9.3-5.3-12-13.3-8c-6.7,4-13.3,2.7-13.3-4c0-6.7,13.3-16,30.6-21.3
			c21.3-5.3,25.3-10.6,12-18.6c-9.3-6.7-16-17.3-14.6-24c1.3-6.7-1.3-22.6-8-35.9c-5.3-13.3-2.7-30.6,5.3-41.3
			c12-14.6,8-17.3-18.6-14.6c-31.9,4-31.9,2.7-13.3-24c26.6-37.3,25.3-49.2-5.3-49.2c-14.6,0-30.6-5.3-34.6-13.3
			c-8-13.3,9.3-18.6,41.3-14.6c18.6,2.7,35.9-33.3,38.6-78.5c1.3-18.6,6.7-41.3,12-50.6c8-13.3,0-16-27.9-13.3
			c-31.9,4-37.3,0-33.3-25.3c4-24,0-27.9-18.6-21.3c-16,5.3-20,4-13.3-8c6.7-9.3,21.3-14.6,33.3-10.6c12,2.7,29.3-2.7,38.6-13.3
			c14.6-14.6,10.6-18.6-22.6-25.3c-22.6-5.3-37.3-13.3-33.3-20s13.3-9.3,20-5.3c6.7,5.3,12,2.7,12-5.3c0-8-14.6-17.3-33.3-22.6
			c-25.3-6.7-31.9-14.6-26.6-33.3c6.7-18.6-1.3-25.3-38.6-31.9c-47.9-9.3-123.8,17.3-118.4,41.3c1.3,6.7-10.6,14.6-25.3,14.6
			c-25.3,2.7-25.3,1.3-4-22.6c13.3-14.6,34.6-29.3,47.9-33.3c30.6-10.6,33.3-33.3,5.3-33.3c-10.6,0-20,5.3-20,12
			c0,20-43.9,29.3-55.9,12c-16-26.6-12-41.3,9.3-31.9c26.6,9.3,25.3-5.3-2.7-26.6c-14.6-10.6-17.3-17.3-6.7-18.6c8,0,16-6.7,16-14.6
			c0-6.7-8-9.3-16-5.3c-9.3,5.3-6.7,0,6.7-10.6c49.2-41.3,8-50.6-43.9-9.3c-39.9,30.6-66.5,33.3-66.5,6.7c0-10.6,9.3-20,20-20
			c10.6,0,20-6.7,20-14.6c0-10.6-14.6-12-42.6-6.7c-57.2,10.6-236.9,98.5-236.9,115.8c0,6.7-8,12-18.6,12
			c-10.6,0-35.9,17.3-57.2,38.6c-21.3,20-51.9,42.6-69.2,47.9c-30.6,9.3-102.5,74.5-320.7,286.1c-102.5,101.1-240.9,260.8-322,375.3
			c-24,34.6-73.2,102.5-109.1,153c-99.8,137.1-235.5,367.3-227.6,385.9c2.7,9.3-1.3,17.3-10.6,17.3c-21.3,0-102.5,169-146.4,306.1
			c-29.3,89.2-31.9,118.4-27.9,272.8c2.7,95.8,12,238.2,20,319.4c10.6,105.1,10.6,146.4,0,150.4c-9.3,2.7-8,10.6,4,22.6
			c17.3,17.3,35.9,199.6,42.6,413.9c1.3,59.9,6.7,121.1,12,137.1c5.3,17.3,1.3,37.3-8,49.2c-12,14.6-12,24-1.3,34.6
			c20,20,21.3,69.2,2.7,57.2c-6.7-4-13.3-1.3-13.3,5.3c0,18.6,22.6,18.6,33.3,1.3c4-6.7,24-13.3,43.9-12c35.9,1.3,35.9,1.3-6.7,16
			c-57.2,21.3-57.2,22.6-43.9,82.5c8,33.3,6.7,58.6-1.3,67.9c-10.6,13.3-2.7,13.3,34.6,1.3C4507.2,4438.9,4523.1,4426.9,4519.1,4415
			z M6327.6-418.2c-9.3-16,38.6-43.9,53.2-30.6c5.3,5.3,8-41.3,5.3-103.8l-5.3-113.1l70.5-4c39.9-2.7,78.5,2.7,87.8,10.6
			c10.6,6.7,21.3,53.2,25.3,101.1c5.3,81.2,29.3,127.7,50.6,101.1c4-5.3,1.3-82.5-5.3-171.7c-12-135.7-10.6-175.7,8-252.8
			c29.3-118.4,27.9-153-5.3-195.6c-29.3-37.3-90.5-74.5-125.1-74.5c-30.6,0-24,22.6,10.6,31.9c16,4,47.9,22.6,69.2,41.3
			c38.6,33.3,38.6,33.3-33.3-4c-53.2-27.9-81.2-35.9-102.5-27.9c-29.3,10.6-29.3,12-18.6,149c1.3,14.6,12,22.6,34.6,22.6
			c18.6,0,33.3-5.3,33.3-12c0-20,65.2-25.3,71.9-6.7c10.6,27.9-45.2,58.6-109.1,58.6c-58.6,0-162.3-42.6-162.3-67.9
			c0-8-5.3-9.3-13.3-5.3c-21.3,13.3-14.6-43.9,8-81.2c27.9-42.6,85.2-71.9,138.4-71.9c21.3,0,39.9-5.3,39.9-13.3
			c0-24-107.8-14.6-154.4,14.6c-82.5,50.6-91.8,110.5-37.3,230.2c55.9,121.1,94.5,404.5,58.6,427.2c-17.3,10.6-17.3,59.9,1.3,59.9
			C6328.9-406.3,6332.9-411.6,6327.6-418.2z"/>
		<path d="M3224.3,8134.3c-5.3-9.3-9.3-78.5-8-151.7c4-157,27.9-252.8,115.8-464.4c33.3-79.8,65.2-169,69.2-195.6
			c5.3-27.9,13.3-50.6,20-50.6c17.3,0,2.7,63.9-77.2,336.7c-4,12-12,22.6-18.6,22.6s-12,20-12,43.9c0,22.6-6.7,63.9-13.3,89.2
			c-27.9,91.8-39.9,239.5-25.3,302.1c10.6,47.9,9.3,63.9-4,73.2C3247,8154.3,3236.3,8153,3224.3,8134.3z"/>
		<path d="M5471.9,8055.8c-58.6-22.6-67.9-30.6-54.6-46.6c8-10.6,26.6-18.6,41.3-18.6c13.3,0,21.3-5.3,17.3-13.3s5.3-13.3,22.6-13.3
			c27.9-1.3,29.3-2.7,8-18.6c-30.6-22.6-14.6-37.3,20-20c18.6,10.6,24,10.6,17.3,0c-5.3-8-1.3-14.6,8-16c9.3,0,47.9-2.7,83.8-4
			c59.9-2.7,126.4-25.3,126.4-42.6c0-2.7-12,0-25.3,8c-31.9,16-94.5,17.3-94.5,1.3c0-6.7,13.3-9.3,30.6-5.3c25.3,5.3,26.6,4,5.3-9.3
			c-13.3-8-75.9-14.6-146.4-13.3c-139.7,1.3-174.3-2.7-226.2-24c-21.3-9.3-45.2-16-54.6-16c-9.3,0-35.9-14.6-61.2-33.3
			c-25.3-18.6-53.2-33.3-63.9-33.3c-18.6,0-274.1-252.8-264.8-262.2c9.3-8,75.9,25.3,75.9,38.6c0,5.3,6.7,10.6,14.6,10.6
			c6.7,0,9.3-5.3,5.3-13.3c-4-6.7-1.3-13.3,5.3-13.3c8,0,14.6,8,14.6,18.6c0,9.3,10.6,26.6,22.6,35.9c14.6,13.3,18.6,13.3,12,2.7
			c-6.7-12,0-17.3,17.3-17.3c20,0,27.9,8,27.9,27.9c0,26.6,98.5,130.4,125.1,131.7c6.7,0,22.6,9.3,35.9,21.3
			c30.6,27.9,50.6,14.6,42.6-26.6c-8-39.9,17.3-121.1,51.9-171.7c27.9-39.9,81.2-71.9,131.7-78.5c17.3-2.7,39.9-9.3,47.9-14.6
			c53.2-33.3,193,51.9,235.5,142.4c24,50.6,27.9,130.4,8,167.7c-8,14.6-8,27.9-1.3,31.9s16-5.3,21.3-22.6s10.6-22.6,16-12
			c9.3,22.6,27.9,20,71.9-12c33.3-22.6,35.9-30.6,24-54.6c-10.6-18.6-9.3-37.3,1.3-63.9c20-49.2,0-89.2-57.2-113.1
			c-30.6-13.3-34.6-18.6-16-18.6c14.6,0,38.6,5.3,53.2,10.6c30.6,12,59.9,5.3,59.9-14.6c0-8-14.6-9.3-34.6-5.3
			c-21.3,5.3-30.6,4-26.6-4c5.3-6.7-2.7-18.6-14.6-26.6c-13.3-8-18.6-14.6-12-14.6c6.7,0,1.3-12-10.6-25.3
			c-16-17.3-18.6-27.9-8-34.6c8-5.3,12-1.3,10.6,9.3c-2.7,10.6,5.3,16,21.3,13.3c13.3-2.7,20,1.3,16,9.3c-5.3,6.7-2.7,16,4,20
			c6.7,5.3,16,2.7,21.3-5.3c5.3-9.3,17.3-9.3,34.6,0c14.6,8,31.9,10.6,38.6,6.7c8-4,9.3,1.3,5.3,12c-5.3,14.6,0,21.3,14.6,21.3
			c12,0,18.6,5.3,14.6,12c-5.3,6.7,29.3,17.3,74.5,24c90.5,12,121.1,38.6,41.3,35.9c-61.2-1.3-83.8,18.6-74.5,65.2
			c6.7,30.6,1.3,38.6-37.3,54.6c-57.2,24-114.4,82.5-89.2,90.5c9.3,4,37.3-4,62.5-17.3c30.6-16,51.9-20,61.2-12
			c9.3,8,21.3,6.7,30.6-2.7c8-8,20-12,24-6.7c10.6,9.3-109.1,86.5-150.4,97.1c-17.3,5.3-30.6,13.3-30.6,18.6
			c0,6.7-10.6,13.3-22.6,17.3c-14.6,2.7-10.6,5.3,9.3,5.3c74.5,0,87.8,4,66.5,17.3c-16,9.3-10.6,13.3,20,13.3c30.6,0,35.9-4,20-13.3
			c-14.6-9.3,0-13.3,49.2-10.6c39.9,0,66.5,6.7,61.2,14.6c-4,6.7-21.3,9.3-37.3,6.7c-21.3-5.3-29.3-1.3-24,12
			c4,9.3,13.3,17.3,22.6,18.6c8,0,0,6.7-17.3,13.3c-17.3,6.7-37.3,8-46.6,1.3c-8-6.7-29.3-6.7-47.9-1.3l-33.3,9.3l33.3,2.7l33.3,1.3
			l-31.9,13.3c-17.3,6.7-39.9,22.6-47.9,34.6c-9.3,13.3-25.3,18.6-38.6,13.3c-12-5.3-21.3-2.7-21.3,4c0,6.7-20,9.3-42.6,5.3
			c-31.9-5.3-38.6-4-25.3,5.3c14.6,10.6,8,16-30.6,22.6c-27.9,5.3-53.2,17.3-57.2,26.6c-4,13.3-31.9,16-101.1,12
			c-79.8-4-87.8-2.7-51.9,8c42.6,14.6,57.2,26.6,26.6,25.3C5550.4,8082.4,5510.5,8070.5,5471.9,8055.8z"/>
	</g>
</g>
</svg>
